<svg class="icon" viewBox="0 0 1024 1024" xmlns="http://www.w3.org/2000/svg" width="200" height="200"><defs><style/></defs><path d="M497.472 0L331.488 41.728V229.6H176.576V88.096L16 136.96l41.888 739.488 439.584 136.928 439.584-136.928 41.888-739.488-160.576-48.864V229.6H663.424V41.728z" fill="#FFBA00"/><path d="M497.472 0L331.488 41.728V229.6H176.576V88.096L16 136.96l41.888 739.488 439.584 136.928z" fill="#FF991F"/><path d="M497.472 1013.376L16 136.96l481.472 296.96z" fill="#FFAD4B"/><path d="M497.472 1013.376L978.944 136.96 497.472 434.176z" fill="#FFC733"/><path d="M555.2 643.424c0-16.832-5.248-30.56-15.744-41.184-10.432-10.56-28.64-20.448-54.4-29.568-41.728-14.112-72.64-30.816-92.704-50.016-20.096-19.2-30.144-46.176-30.144-80.928 0-32.992 9.664-59.648 28.96-79.936 19.296-20.288 46.048-32.48 80.192-36.544v-63.424h46.592v64.032c33.984 5.056 60.064 19.072 78.464 42.08 18.304 22.976 27.488 54.208 27.488 93.6h-70.432c0-24.832-5.376-44.192-16.032-58.048-10.656-13.888-25.728-20.832-45.12-20.832-20.192 0-35.136 5.216-44.832 15.584-9.728 10.4-14.56 24.704-14.56 42.944 0 17.088 5.056 30.688 15.136 40.896 10.08 10.176 28.896 20.128 56.48 29.856 41.728 14.944 72.352 31.872 92 50.784 19.648 18.912 29.44 45.664 29.44 80.192 0 34.176-10.016 61.088-30.112 80.8-20.096 19.648-48.096 31.328-84 35.072v56.704H465.6V759.04c-35.328-3.68-64.128-16.192-86.336-37.408-22.208-21.28-33.344-53.44-33.344-96.544h70.752c0 28.16 6.656 48 19.936 59.488 13.312 11.584 30.24 17.376 50.816 17.376 21.92 0 38.72-5.12 50.336-15.424 11.616-10.272 17.44-24.64 17.44-43.104" fill="#FFF"/></svg>